<svg width="40" height="37" viewBox="0 0 40 37" fill="none" xmlns="http://www.w3.org/2000/svg">
<path d="M38.8629 1.52501C38.5534 1.25768 38.1769 1.07977 37.7739 1.01039C37.3708 0.941018 36.9565 0.982805 36.5754 1.13126L1.98169 14.725C1.53212 14.9039 1.15219 15.2229 0.898253 15.6348C0.644319 16.0466 0.529914 16.5294 0.572011 17.0114C0.614108 17.4934 0.810464 17.949 1.13195 18.3106C1.45343 18.6722 1.88292 18.9205 2.35669 19.0188L11.7504 20.9125V32.5C11.7447 32.9464 11.8742 33.3841 12.1219 33.7555C12.3695 34.127 12.7237 34.4148 13.1379 34.5813C13.4183 34.6929 13.7174 34.7501 14.0192 34.75C14.3121 34.7503 14.6021 34.6925 14.8725 34.5798C15.1429 34.4672 15.3882 34.302 15.5942 34.0938L20.9567 28.7313L28.8692 35.6875C29.2747 36.0546 29.8035 36.2554 30.3504 36.25C30.5862 36.2494 30.8203 36.2114 31.0442 36.1375C31.4128 36.0166 31.7443 35.8031 32.0069 35.5175C32.2695 35.2319 32.4545 34.8837 32.5442 34.5063L39.5942 3.71876C39.6865 3.32123 39.667 2.90592 39.538 2.51875C39.4089 2.13159 39.1753 1.78766 38.8629 1.52501ZM2.05669 16.8813C2.03439 16.7187 2.06885 16.5535 2.15425 16.4135C2.23965 16.2734 2.37076 16.1671 2.52544 16.1125L34.2504 3.66251L12.3317 19.4875L2.65669 17.5563C2.49555 17.5272 2.34883 17.4448 2.24004 17.3225C2.13125 17.2001 2.06668 17.0447 2.05669 16.8813ZM14.5254 33.025C14.4236 33.1309 14.2922 33.2036 14.1483 33.2337C14.0045 33.2638 13.855 33.2499 13.7192 33.1938C13.5809 33.1378 13.4625 33.042 13.379 32.9184C13.2955 32.7948 13.2507 32.6492 13.2504 32.5V21.9438L19.8317 27.7375L14.5254 33.025ZM38.1317 3.40001L31.0817 34.1688C31.0536 34.2964 30.9918 34.4141 30.9028 34.5097C30.8137 34.6053 30.7007 34.6754 30.5754 34.7125C30.4544 34.756 30.3237 34.765 30.1979 34.7385C30.0721 34.712 29.9561 34.6511 29.8629 34.5625L13.7004 20.35L38.0192 2.78126C38.0805 2.87064 38.1222 2.97197 38.1416 3.07861C38.161 3.18524 38.1576 3.29477 38.1317 3.40001Z" fill="#F6F5FC"/>
</svg>
